<?xml version="1.0" standalone="no"?>
<!DOCTYPE svg PUBLIC "-//W3C//DTD SVG 20010904//EN"
 "http://www.w3.org/TR/2001/REC-SVG-20010904/DTD/svg10.dtd">
<svg version="1.0" xmlns="http://www.w3.org/2000/svg"
 width="368.000000pt" height="368.000000pt" viewBox="0 0 368.000000 368.000000"
 preserveAspectRatio="xMidYMid meet">

<g transform="translate(0.000000,368.000000) scale(0.100000,-0.100000)"
fill="#000000" stroke="none">
<path d="M1852 2358 l3 -43 110 0 110 0 3 34 c2 20 -2 37 -10 42 -7 5 -59 9
-116 9 l-103 0 3 -42z"/>
<path d="M2407 2063 c-3 -38 -4 -183 -4 -322 l1 -255 -28 -7 c-22 -6 -749 -14
-1360 -14 l-139 0 2 93 2 92 -39 0 -39 0 -7 -61 c-3 -34 -6 -77 -6 -95 0 -30
-7 -38 -62 -75 -35 -23 -134 -94 -221 -157 l-158 -114 6 -42 c4 -22 8 -42 9
-42 0 -1 285 -3 631 -5 593 -4 1761 8 1778 18 4 2 7 22 7 43 0 46 -32 89 -181
246 l-99 104 0 330 0 330 -44 0 -44 0 -5 -67z m-82 -708 l70 -64 -300 -2
c-165 0 -529 -2 -809 -4 -281 -2 -518 0 -529 4 -16 6 -7 16 52 59 39 29 73 57
76 61 3 5 312 9 687 10 l683 1 70 -65z m-782 -104 l207 -1 12 -25 c6 -14 9
-27 7 -29 -2 -3 -117 -8 -254 -11 -138 -3 -264 -8 -282 -11 -46 -7 -49 12 -9
52 30 30 40 34 73 30 21 -2 131 -5 246 -5z m1217 -138 l0 -23 -257 -1 c-142 0
-292 -3 -333 -5 -81 -6 -1780 -7 -1785 -2 -1 2 -6 13 -9 25 l-7 23 578 2 c318
2 856 3 1195 3 l618 0 0 -22z"/>
<path d="M880 1380 l-25 -20 56 0 c50 0 79 11 79 32 0 17 -85 7 -110 -12z"/>
<path d="M1002 1380 c-12 -19 -10 -20 77 -20 72 0 90 3 95 16 3 9 6 16 6 17 0
1 -37 3 -83 4 -73 3 -84 1 -95 -17z"/>
<path d="M1195 1382 c-3 -8 -5 -16 -5 -18 0 -2 43 -4 95 -4 84 0 95 2 95 18 0
15 -11 17 -90 17 -66 0 -91 -3 -95 -13z"/>
<path d="M1400 1380 c0 -19 7 -20 104 -20 113 0 136 4 136 26 0 11 -24 14
-120 14 -113 0 -120 -1 -120 -20z"/>
<path d="M1660 1385 c0 -13 15 -15 97 -13 66 2 98 7 101 16 3 9 -21 12 -97 12
-84 0 -101 -3 -101 -15z"/>
<path d="M1880 1391 c0 -10 123 -19 173 -13 15 2 25 8 22 13 -8 12 -195 12
-195 0z"/>
<path d="M2095 1391 c6 -5 48 -13 94 -17 69 -6 83 -4 79 7 -3 10 -28 15 -94
17 -57 2 -85 -1 -79 -7z"/>
<path d="M1732 1352 c-50 -2 -61 -6 -65 -22 -3 -11 -1 -22 4 -25 15 -10 219
-3 219 7 0 31 -22 49 -59 46 -21 -2 -66 -4 -99 -6z"/>
<path d="M1900 1351 c0 -37 12 -41 111 -41 54 0 99 3 99 8 0 4 -7 15 -14 25
-11 14 -29 17 -105 17 -50 0 -91 -4 -91 -9z"/>
<path d="M2122 1335 c11 -24 16 -25 88 -25 43 0 93 -3 111 -6 l34 -7 -29 32
c-29 30 -31 31 -123 31 l-93 0 12 -25z"/>
<path d="M806 1326 l-29 -24 54 -4 c74 -5 96 0 114 28 l15 24 -62 0 c-51 -1
-69 -5 -92 -24z"/>
<path d="M964 1325 c-14 -20 -12 -20 77 -23 91 -3 108 3 109 33 0 6 -35 10
-86 10 -75 0 -88 -2 -100 -20z"/>
<path d="M1170 1331 c-5 -11 -10 -23 -10 -26 0 -5 184 -1 208 4 1 1 2 10 2 21
0 19 -7 20 -95 20 -83 0 -96 -2 -105 -19z"/>
<path d="M1390 1325 l0 -25 131 0 c130 0 130 0 127 23 -3 21 -7 22 -130 25
l-128 3 0 -26z"/>
<path d="M1238 1223 c-10 -11 -18 -21 -18 -24 0 -5 524 1 529 7 3 2 0 9 -6 15
-7 7 -96 13 -250 16 -226 5 -239 4 -255 -14z"/>
<path d="M2820 1870 c0 -60 -22 -53 246 -80 272 -27 260 -28 268 16 4 19 9 41
12 48 3 8 -24 15 -93 24 -95 12 -395 42 -420 42 -9 0 -13 -17 -13 -50z"/>
<path d="M3055 1685 c-56 -20 -95 -66 -95 -112 l0 -38 30 37 c17 21 47 42 68
49 63 20 93 59 56 73 -9 3 -16 6 -17 6 -1 -1 -20 -7 -42 -15z"/>
<path d="M3142 1644 c-6 -12 -35 -31 -65 -43 -60 -25 -103 -76 -72 -87 24 -10
102 24 125 53 23 29 34 65 28 85 -3 9 -8 6 -16 -8z"/>
<path d="M2821 1371 c2 -79 -2 -76 94 -86 118 -12 240 -26 266 -30 24 -4 27 0
38 53 7 31 14 64 17 73 4 13 -22 18 -178 33 -101 9 -195 19 -211 22 l-27 6 1
-71z"/>
</g>
</svg>
