<?xml version="1.0" encoding="UTF-8"?>
<!-- Generator: visioncortex VTracer 0.6.3 -->
<svg version="1.1" xmlns="http://www.w3.org/2000/svg" width="1280" height="1280">
<path d="M0 0 C1.66 -0 3.32 -0.01 4.98 -0.01 C9.52 -0.02 14.07 -0.01 18.61 -0.01 C23.56 -0 28.51 -0.01 33.46 -0.01 C42.13 -0.02 50.8 -0.02 59.47 -0.01 C72.36 -0.01 85.26 -0.01 98.15 -0.02 C121.18 -0.03 144.2 -0.03 167.23 -0.02 C187.38 -0.01 207.53 -0.01 227.69 -0.02 C229.04 -0.02 230.39 -0.02 231.74 -0.02 C237.16 -0.02 242.58 -0.02 248.01 -0.02 C263.17 -0.02 278.34 -0.02 293.5 -0.02 C294.19 -0.02 294.88 -0.02 295.6 -0.02 C317.6 -0.02 339.6 -0.02 361.6 -0.02 C362.31 -0.02 363.02 -0.02 363.76 -0.02 C375.34 -0.01 386.93 -0.01 398.52 -0.01 C444.47 0 490.41 0 536.36 -0.01 C547.94 -0.01 559.52 -0.01 571.1 -0.02 C572.17 -0.02 572.17 -0.02 573.26 -0.02 C595.24 -0.02 617.22 -0.02 639.2 -0.02 C640.23 -0.02 640.23 -0.02 641.29 -0.02 C656.44 -0.02 671.58 -0.02 686.73 -0.02 C692.15 -0.02 697.57 -0.02 702.99 -0.02 C704.34 -0.02 705.69 -0.02 707.04 -0.02 C727.18 -0.01 747.33 -0.02 767.47 -0.02 C791.04 -0.03 814.6 -0.03 838.17 -0.01 C850.99 -0.01 863.8 -0.01 876.62 -0.02 C885.18 -0.02 893.74 -0.02 902.3 -0.01 C907.18 -0 912.05 -0 916.93 -0.01 C921.37 -0.02 925.81 -0.01 930.26 -0 C931.85 -0 933.44 -0 935.04 -0.01 C953.77 -0.06 967.93 2.41 983.09 13.99 C984.35 15.25 984.35 15.25 984.35 17.25 C985.01 17.25 985.67 17.25 986.35 17.25 C999.9 32.72 1001.67 49.17 1001.6 68.9 C1001.6 70.56 1001.61 72.22 1001.61 73.88 C1001.62 78.43 1001.61 82.97 1001.61 87.52 C1001.6 92.47 1001.61 97.42 1001.61 102.37 C1001.62 111.04 1001.62 119.71 1001.62 128.38 C1001.61 141.28 1001.61 154.18 1001.62 167.07 C1001.63 190.1 1001.63 213.13 1001.62 236.16 C1001.62 256.32 1001.62 276.47 1001.62 296.63 C1001.62 297.98 1001.62 299.33 1001.62 300.68 C1001.62 306.1 1001.62 311.53 1001.62 316.95 C1001.62 332.12 1001.62 347.28 1001.62 362.45 C1001.62 363.14 1001.62 363.83 1001.62 364.54 C1001.62 386.55 1001.62 408.55 1001.62 430.55 C1001.62 431.62 1001.62 431.62 1001.62 432.71 C1001.62 444.3 1001.61 455.89 1001.61 467.47 C1001.6 513.43 1001.6 559.38 1001.61 605.34 C1001.61 616.92 1001.62 628.51 1001.62 640.09 C1001.62 641.16 1001.62 641.16 1001.62 642.25 C1001.62 664.23 1001.62 686.21 1001.62 708.19 C1001.62 709.22 1001.62 709.22 1001.62 710.28 C1001.62 725.43 1001.62 740.58 1001.62 755.73 C1001.62 761.15 1001.62 766.57 1001.62 771.99 C1001.62 773.34 1001.62 774.68 1001.62 776.03 C1001.62 796.18 1001.62 816.33 1001.62 836.48 C1001.63 860.05 1001.63 883.62 1001.62 907.18 C1001.61 920 1001.61 932.82 1001.62 945.64 C1001.62 954.2 1001.62 962.76 1001.61 971.32 C1001.61 976.2 1001.6 981.08 1001.61 985.96 C1001.62 990.4 1001.62 994.84 1001.61 999.28 C1001.6 1000.88 1001.6 1002.47 1001.61 1004.06 C1001.66 1022.69 999.18 1038.86 986.35 1053.25 C985.69 1053.25 985.03 1053.25 984.35 1053.25 C984.35 1053.91 984.35 1054.57 984.35 1055.25 C969.23 1068.73 952.25 1070.57 932.82 1070.5 C931.17 1070.51 929.51 1070.51 927.85 1070.51 C923.3 1070.52 918.76 1070.52 914.21 1070.51 C909.26 1070.5 904.31 1070.51 899.36 1070.52 C890.69 1070.52 882.02 1070.52 873.35 1070.52 C860.46 1070.51 847.56 1070.51 834.67 1070.52 C811.64 1070.53 788.6 1070.53 765.57 1070.52 C745.42 1070.52 725.26 1070.52 705.11 1070.52 C703.76 1070.52 702.41 1070.52 701.06 1070.52 C695.63 1070.52 690.21 1070.52 684.78 1070.52 C669.62 1070.52 654.45 1070.52 639.29 1070.53 C638.6 1070.53 637.91 1070.53 637.2 1070.53 C615.19 1070.53 593.19 1070.52 571.19 1070.52 C570.47 1070.52 569.76 1070.52 569.02 1070.52 C557.44 1070.52 545.85 1070.51 534.26 1070.51 C488.3 1070.5 442.35 1070.5 396.39 1070.51 C384.81 1070.51 373.23 1070.52 361.65 1070.52 C360.94 1070.52 360.22 1070.52 359.49 1070.52 C337.51 1070.52 315.53 1070.53 293.55 1070.53 C292.86 1070.53 292.17 1070.53 291.46 1070.53 C276.31 1070.52 261.16 1070.52 246.01 1070.52 C240.59 1070.52 235.17 1070.52 229.75 1070.52 C228.4 1070.52 227.05 1070.52 225.7 1070.52 C205.55 1070.52 185.41 1070.52 165.26 1070.52 C141.69 1070.53 118.12 1070.53 94.55 1070.52 C81.73 1070.51 68.91 1070.51 56.09 1070.52 C47.53 1070.52 38.97 1070.52 30.41 1070.51 C25.53 1070.51 20.65 1070.51 15.77 1070.51 C11.33 1070.52 6.89 1070.52 2.45 1070.51 C0.85 1070.5 -0.74 1070.51 -2.33 1070.51 C-21.07 1070.57 -35.23 1068.09 -50.39 1056.51 C-51.65 1055.25 -51.65 1055.25 -51.65 1053.25 C-52.31 1053.25 -52.97 1053.25 -53.65 1053.25 C-67.2 1037.78 -68.96 1021.34 -68.9 1001.6 C-68.9 999.94 -68.91 998.28 -68.91 996.63 C-68.92 992.08 -68.91 987.54 -68.91 982.99 C-68.9 978.04 -68.91 973.09 -68.91 968.14 C-68.92 959.47 -68.92 950.8 -68.92 942.13 C-68.91 929.24 -68.91 916.35 -68.92 903.45 C-68.93 880.43 -68.93 857.4 -68.92 834.37 C-68.92 814.22 -68.91 794.07 -68.92 773.92 C-68.92 772.57 -68.92 771.22 -68.92 769.87 C-68.92 764.44 -68.92 759.02 -68.92 753.59 C-68.92 738.43 -68.92 723.26 -68.92 708.1 C-68.92 707.41 -68.92 706.72 -68.92 706.01 C-68.92 684.01 -68.92 662.01 -68.92 640.01 C-68.92 639.29 -68.92 638.58 -68.92 637.84 C-68.91 626.26 -68.91 614.67 -68.91 603.09 C-68.9 557.14 -68.9 511.19 -68.91 465.24 C-68.91 453.66 -68.92 442.08 -68.92 430.5 C-68.92 429.43 -68.92 429.43 -68.92 428.34 C-68.92 406.36 -68.92 384.38 -68.92 362.4 C-68.92 361.71 -68.92 361.02 -68.92 360.31 C-68.92 345.17 -68.92 330.02 -68.92 314.87 C-68.92 309.45 -68.92 304.03 -68.92 298.61 C-68.92 297.26 -68.92 295.91 -68.92 294.57 C-68.91 274.42 -68.92 254.27 -68.92 234.13 C-68.93 210.56 -68.93 187 -68.92 163.43 C-68.91 150.62 -68.91 137.8 -68.92 124.98 C-68.92 116.42 -68.92 107.86 -68.91 99.3 C-68.91 94.43 -68.9 89.55 -68.91 84.67 C-68.92 80.23 -68.91 75.79 -68.9 71.35 C-68.9 69.75 -68.9 68.16 -68.91 66.57 C-68.96 47.83 -66.49 33.68 -54.91 18.51 C-53.65 17.25 -53.65 17.25 -51.65 17.25 C-51.65 16.59 -51.65 15.93 -51.65 15.25 C-36.18 1.7 -19.73 -0.06 0 0 Z M41.35 110.25 C41.35 390.75 41.35 671.25 41.35 960.25 C321.85 960.25 602.35 960.25 891.35 960.25 C891.35 679.75 891.35 399.25 891.35 110.25 C610.85 110.25 330.35 110.25 41.35 110.25 Z " fill="#000000" transform="translate(173.64968872070313,104.74831771850586)"/>
<path d="M0 0 C11.13 9.24 21.11 19.96 31.33 30.18 C33.92 32.78 36.52 35.37 39.11 37.96 C44.18 43.02 49.24 48.08 54.31 53.14 C58.42 57.26 62.54 61.37 66.66 65.49 C78.35 77.17 90.04 88.86 101.73 100.55 C102.36 101.17 102.99 101.8 103.63 102.45 C104.26 103.08 104.89 103.71 105.54 104.35 C115.75 114.57 125.97 124.77 136.19 134.98 C146.7 145.48 157.21 155.98 167.71 166.48 C173.6 172.38 179.5 178.26 185.39 184.15 C190.41 189.15 195.42 194.16 200.42 199.17 C202.97 201.73 205.53 204.28 208.08 206.83 C210.86 209.6 213.63 212.37 216.39 215.15 C217.2 215.95 218.01 216.75 218.84 217.57 C226.5 225.29 231.22 232.76 235 243 C235.25 243.67 235.5 244.34 235.76 245.02 C239.92 258.45 236.67 273.08 230.32 285.21 C228.66 287.91 226.91 290.46 225 293 C224.24 294.02 224.24 294.02 223.46 295.05 C215.65 304.79 203.24 311.1 191 313 C174.02 314.38 161.83 311.03 147.65 301.41 C146.83 300.71 146.83 300.71 146 300 C146 299.34 146 298.68 146 298 C145.01 297.67 144.02 297.34 143 297 C143 296.34 143 295.68 143 295 C142.34 295 141.68 295 141 295 C141 294.34 141 293.68 141 293 C140.01 292.67 139.02 292.34 138 292 C138 291.34 138 290.68 138 290 C137.34 290 136.68 290 136 290 C136 289.34 136 288.68 136 288 C135.01 287.67 134.02 287.34 133 287 C133 286.34 133 285.68 133 285 C132.34 285 131.68 285 131 285 C131 284.34 131 283.68 131 283 C130.01 282.67 129.02 282.34 128 282 C128 281.34 128 280.68 128 280 C127.34 280 126.68 280 126 280 C126 279.34 126 278.68 126 278 C125.01 277.67 124.02 277.34 123 277 C123 276.34 123 275.68 123 275 C122.34 275 121.68 275 121 275 C121 274.34 121 273.68 121 273 C120.01 272.67 119.02 272.34 118 272 C118 271.34 118 270.68 118 270 C117.34 270 116.68 270 116 270 C116 269.34 116 268.68 116 268 C115.01 267.67 114.02 267.34 113 267 C113 266.34 113 265.68 113 265 C112.34 265 111.68 265 111 265 C111 264.34 111 263.68 111 263 C110.01 262.67 109.02 262.34 108 262 C108 261.34 108 260.68 108 260 C107.34 260 106.68 260 106 260 C106 259.34 106 258.68 106 258 C105.01 257.67 104.02 257.34 103 257 C103 256.34 103 255.68 103 255 C102.34 255 101.68 255 101 255 C101 254.34 101 253.68 101 253 C100.01 252.67 99.02 252.34 98 252 C98 251.34 98 250.68 98 250 C97.34 250 96.68 250 96 250 C96 249.34 96 248.68 96 248 C95.01 247.67 94.02 247.34 93 247 C93 246.34 93 245.68 93 245 C92.34 245 91.68 245 91 245 C91 244.34 91 243.68 91 243 C90.01 242.67 89.02 242.34 88 242 C88 241.34 88 240.68 88 240 C87.34 240 86.68 240 86 240 C86 239.34 86 238.68 86 238 C85.01 237.67 84.02 237.34 83 237 C83 236.34 83 235.68 83 235 C82.34 235 81.68 235 81 235 C81 234.34 81 233.68 81 233 C80.01 232.67 79.02 232.34 78 232 C78 231.34 78 230.68 78 230 C77.34 230 76.68 230 76 230 C76 229.34 76 228.68 76 228 C75.01 227.67 74.02 227.34 73 227 C73 226.34 73 225.68 73 225 C72.34 225 71.68 225 71 225 C71 224.34 71 223.68 71 223 C70.01 222.67 69.02 222.34 68 222 C68 221.34 68 220.68 68 220 C67.34 220 66.68 220 66 220 C66 219.34 66 218.68 66 218 C65.01 217.67 64.02 217.34 63 217 C63 216.34 63 215.68 63 215 C62.34 215 61.68 215 61 215 C61 214.34 61 213.68 61 213 C60.01 212.67 59.02 212.34 58 212 C58 211.34 58 210.68 58 210 C57.34 210 56.68 210 56 210 C56 209.34 56 208.68 56 208 C55.01 207.67 54.02 207.34 53 207 C53 206.34 53 205.68 53 205 C52.34 205 51.68 205 51 205 C51 204.34 51 203.68 51 203 C50.01 202.67 49.02 202.34 48 202 C48 201.34 48 200.68 48 200 C47.34 200 46.68 200 46 200 C46 199.34 46 198.68 46 198 C45.01 197.67 44.02 197.34 43 197 C43 196.34 43 195.68 43 195 C42.34 195 41.68 195 41 195 C41 194.34 41 193.68 41 193 C40.01 192.67 39.02 192.34 38 192 C38 191.34 38 190.68 38 190 C37.34 190 36.68 190 36 190 C36 189.34 36 188.68 36 188 C35.01 187.67 34.02 187.34 33 187 C33 186.34 33 185.68 33 185 C32.34 185 31.68 185 31 185 C31 184.34 31 183.68 31 183 C30.01 182.67 29.02 182.34 28 182 C28 181.34 28 180.68 28 180 C27.34 180 26.68 180 26 180 C26 179.34 26 178.68 26 178 C25.01 177.67 24.02 177.34 23 177 C23 176.34 23 175.68 23 175 C22.34 175 21.68 175 21 175 C21 174.34 21 173.68 21 173 C20.01 172.67 19.02 172.34 18 172 C18 171.34 18 170.68 18 170 C17.34 170 16.68 170 16 170 C16 169.34 16 168.68 16 168 C15.01 167.67 14.02 167.34 13 167 C13 166.34 13 165.68 13 165 C12.34 165 11.68 165 11 165 C11 164.34 11 163.68 11 163 C10.01 162.67 9.02 162.34 8 162 C8 161.34 8 160.68 8 160 C7.34 160 6.68 160 6 160 C6 159.34 6 158.68 6 158 C5.01 157.67 4.02 157.34 3 157 C3 156.34 3 155.68 3 155 C2.34 155 1.68 155 1 155 C1 154.34 1 153.68 1 153 C0.01 152.67 -0.98 152.34 -2 152 C-2 151.34 -2 150.68 -2 150 C-2.66 150 -3.32 150 -4 150 C-4 149.34 -4 148.68 -4 148 C-4.99 147.67 -5.98 147.34 -7 147 C-7 146.34 -7 145.68 -7 145 C-7.66 145 -8.32 145 -9 145 C-9 144.34 -9 143.68 -9 143 C-9.99 142.67 -10.98 142.34 -12 142 C-12 141.34 -12 140.68 -12 140 C-12.66 140 -13.32 140 -14 140 C-14 139.34 -14 138.68 -14 138 C-14.99 137.67 -15.98 137.34 -17 137 C-17 136.34 -17 135.68 -17 135 C-17.66 135 -18.32 135 -19 135 C-19 134.34 -19 133.68 -19 133 C-19.99 132.67 -20.98 132.34 -22 132 C-22 131.34 -22 130.68 -22 130 C-22.66 130 -23.32 130 -24 130 C-24 129.34 -24 128.68 -24 128 C-24.99 127.67 -25.98 127.34 -27 127 C-27 126.34 -27 125.68 -27 125 C-27.66 125 -28.32 125 -29 125 C-29 124.34 -29 123.68 -29 123 C-30.32 123 -31.64 123 -33 123 C-33 123.66 -33 124.32 -33 125 C-33.66 125 -34.32 125 -35 125 C-35.33 125.99 -35.66 126.98 -36 128 C-36.66 128 -37.32 128 -38 128 C-38 128.66 -38 129.32 -38 130 C-38.66 130 -39.32 130 -40 130 C-40.33 130.99 -40.66 131.98 -41 133 C-41.66 133 -42.32 133 -43 133 C-43 133.66 -43 134.32 -43 135 C-43.66 135 -44.32 135 -45 135 C-45.33 135.99 -45.66 136.98 -46 138 C-46.66 138 -47.32 138 -48 138 C-48 138.66 -48 139.32 -48 140 C-48.66 140 -49.32 140 -50 140 C-50.33 140.99 -50.66 141.98 -51 143 C-51.66 143 -52.32 143 -53 143 C-53 143.66 -53 144.32 -53 145 C-53.66 145 -54.32 145 -55 145 C-55.33 145.99 -55.66 146.98 -56 148 C-56.66 148 -57.32 148 -58 148 C-58 148.66 -58 149.32 -58 150 C-58.66 150 -59.32 150 -60 150 C-60.33 150.99 -60.66 151.98 -61 153 C-61.66 153 -62.32 153 -63 153 C-63 153.66 -63 154.32 -63 155 C-63.66 155 -64.32 155 -65 155 C-65.33 155.99 -65.66 156.98 -66 158 C-66.66 158 -67.32 158 -68 158 C-68 158.66 -68 159.32 -68 160 C-68.66 160 -69.32 160 -70 160 C-70.33 160.99 -70.66 161.98 -71 163 C-71.66 163 -72.32 163 -73 163 C-73 163.66 -73 164.32 -73 165 C-73.66 165 -74.32 165 -75 165 C-75.33 165.99 -75.66 166.98 -76 168 C-76.66 168 -77.32 168 -78 168 C-78 168.66 -78 169.32 -78 170 C-78.66 170 -79.32 170 -80 170 C-80.33 170.99 -80.66 171.98 -81 173 C-81.66 173 -82.32 173 -83 173 C-83 173.66 -83 174.32 -83 175 C-83.66 175 -84.32 175 -85 175 C-85.33 175.99 -85.66 176.98 -86 178 C-86.66 178 -87.32 178 -88 178 C-88 178.66 -88 179.32 -88 180 C-88.66 180 -89.32 180 -90 180 C-90.33 180.99 -90.66 181.98 -91 183 C-91.66 183 -92.32 183 -93 183 C-93 183.66 -93 184.32 -93 185 C-93.66 185 -94.32 185 -95 185 C-95.33 185.99 -95.66 186.98 -96 188 C-96.66 188 -97.32 188 -98 188 C-98 188.66 -98 189.32 -98 190 C-98.66 190 -99.32 190 -100 190 C-100.33 190.99 -100.66 191.98 -101 193 C-101.66 193 -102.32 193 -103 193 C-103 193.66 -103 194.32 -103 195 C-103.66 195 -104.32 195 -105 195 C-105.33 195.99 -105.66 196.98 -106 198 C-106.66 198 -107.32 198 -108 198 C-108 198.66 -108 199.32 -108 200 C-108.66 200 -109.32 200 -110 200 C-110.33 200.99 -110.66 201.98 -111 203 C-111.66 203 -112.32 203 -113 203 C-113 203.66 -113 204.32 -113 205 C-113.66 205 -114.32 205 -115 205 C-115.33 205.99 -115.66 206.98 -116 208 C-116.66 208 -117.32 208 -118 208 C-118 208.66 -118 209.32 -118 210 C-118.66 210 -119.32 210 -120 210 C-120.33 210.99 -120.66 211.98 -121 213 C-121.66 213 -122.32 213 -123 213 C-123 213.66 -123 214.32 -123 215 C-123.66 215 -124.32 215 -125 215 C-125.33 215.99 -125.66 216.98 -126 218 C-126.66 218 -127.32 218 -128 218 C-128 218.66 -128 219.32 -128 220 C-128.66 220 -129.32 220 -130 220 C-130.33 220.99 -130.66 221.98 -131 223 C-131.66 223 -132.32 223 -133 223 C-133 223.66 -133 224.32 -133 225 C-133.66 225 -134.32 225 -135 225 C-135.33 225.99 -135.66 226.98 -136 228 C-136.66 228 -137.32 228 -138 228 C-138 228.66 -138 229.32 -138 230 C-138.66 230 -139.32 230 -140 230 C-140.33 230.99 -140.66 231.98 -141 233 C-141.66 233 -142.32 233 -143 233 C-143 233.66 -143 234.32 -143 235 C-143.66 235 -144.32 235 -145 235 C-145.33 235.99 -145.66 236.98 -146 238 C-146.66 238 -147.32 238 -148 238 C-148 238.66 -148 239.32 -148 240 C-148.66 240 -149.32 240 -150 240 C-150.33 240.99 -150.66 241.98 -151 243 C-151.66 243 -152.32 243 -153 243 C-153 243.66 -153 244.32 -153 245 C-153.66 245 -154.32 245 -155 245 C-155.33 245.99 -155.66 246.98 -156 248 C-156.66 248 -157.32 248 -158 248 C-158 248.66 -158 249.32 -158 250 C-158.66 250 -159.32 250 -160 250 C-160.33 250.99 -160.66 251.98 -161 253 C-161.66 253 -162.32 253 -163 253 C-163 253.66 -163 254.32 -163 255 C-163.66 255 -164.32 255 -165 255 C-165.33 255.99 -165.66 256.98 -166 258 C-166.66 258 -167.32 258 -168 258 C-168 258.66 -168 259.32 -168 260 C-168.66 260 -169.32 260 -170 260 C-170.33 260.99 -170.66 261.98 -171 263 C-171.66 263 -172.32 263 -173 263 C-173 263.66 -173 264.32 -173 265 C-173.66 265 -174.32 265 -175 265 C-175.33 265.99 -175.66 266.98 -176 268 C-176.66 268 -177.32 268 -178 268 C-178 268.66 -178 269.32 -178 270 C-178.66 270 -179.32 270 -180 270 C-180.33 270.99 -180.66 271.98 -181 273 C-181.66 273 -182.32 273 -183 273 C-183 273.66 -183 274.32 -183 275 C-183.66 275 -184.32 275 -185 275 C-185.33 275.99 -185.66 276.98 -186 278 C-186.66 278 -187.32 278 -188 278 C-188 278.66 -188 279.32 -188 280 C-188.66 280 -189.32 280 -190 280 C-190.33 280.99 -190.66 281.98 -191 283 C-191.66 283 -192.32 283 -193 283 C-193 283.66 -193 284.32 -193 285 C-193.66 285 -194.32 285 -195 285 C-195.33 285.99 -195.66 286.98 -196 288 C-196.66 288 -197.32 288 -198 288 C-198 288.66 -198 289.32 -198 290 C-198.66 290 -199.32 290 -200 290 C-200.33 290.99 -200.66 291.98 -201 293 C-201.66 293 -202.32 293 -203 293 C-203 293.66 -203 294.32 -203 295 C-203.66 295 -204.32 295 -205 295 C-205.33 295.99 -205.66 296.98 -206 298 C-206.66 298 -207.32 298 -208 298 C-208 298.66 -208 299.32 -208 300 C-218.93 310.37 -232.17 314 -247 314 C-255.36 313.43 -262.6 311.95 -270 308 C-271.18 307.42 -272.35 306.85 -273.56 306.25 C-274.37 305.84 -275.17 305.42 -276 305 C-276 304.34 -276 303.68 -276 303 C-276.93 302.54 -276.93 302.54 -277.88 302.06 C-279.25 301.38 -280.62 300.69 -282 300 C-282 299.34 -282 298.68 -282 298 C-282.99 297.67 -283.98 297.34 -285 297 C-285 296.34 -285 295.68 -285 295 C-285.66 295 -286.32 295 -287 295 C-288.29 293.57 -288.29 293.57 -289.62 291.69 C-290.07 291.07 -290.52 290.46 -290.98 289.82 C-292 288 -292 288 -292 285 C-292.66 285 -293.32 285 -294 285 C-300.74 271.1 -301.76 254.52 -296.69 239.88 C-295.1 236.05 -293.34 232.42 -291 229 C-290.34 229 -289.68 229 -289 229 C-289 228.01 -289 227.02 -289 226 C-288.34 226 -287.68 226 -287 226 C-286.75 225.42 -286.49 224.84 -286.23 224.24 C-284.87 221.76 -283.35 220.1 -281.35 218.1 C-280.2 216.95 -280.2 216.95 -279.03 215.77 C-278.19 214.93 -277.35 214.09 -276.48 213.23 C-275.59 212.34 -274.69 211.44 -273.77 210.52 C-271.3 208.04 -268.81 205.56 -266.33 203.08 C-263.65 200.41 -260.97 197.73 -258.3 195.05 C-253.06 189.81 -247.81 184.57 -242.57 179.33 C-236.46 173.23 -230.35 167.12 -224.25 161.02 C-213.35 150.12 -202.46 139.24 -191.56 128.35 C-180.98 117.79 -170.4 107.22 -159.83 96.65 C-159.18 96 -158.53 95.35 -157.86 94.68 C-157.21 94.03 -156.56 93.38 -155.89 92.71 C-143.86 80.68 -131.83 68.65 -119.79 56.62 C-115.54 52.37 -111.28 48.11 -107.03 43.86 C-101.84 38.67 -96.65 33.49 -91.46 28.3 C-88.81 25.66 -86.16 23.02 -83.51 20.37 C-80.65 17.5 -77.77 14.63 -74.9 11.77 C-74.07 10.93 -73.23 10.09 -72.37 9.23 C-52.45 -10.61 -24.26 -16.11 0 0 Z " fill="#000000" transform="translate(671,488)"/>
</svg>
